<?xml version="1.0" encoding="UTF-8"?><svg id="Layer_2" xmlns="http://www.w3.org/2000/svg" viewBox="0 0 132 132"><g id="Layer_1-2"><rect x="108" y="108" width="24" height="24" rx="2.5" ry="2.5" fill="#0a0b24" stroke-width="0"/><rect x="81" y="81" width="24" height="24" rx="2.5" ry="2.5" fill="#0a0b24" stroke-width="0"/><rect x="54" y="54" width="24" height="24" rx="2.5" ry="2.5" fill="#0a0b24" stroke-width="0"/><path d="M129.5,0H2.5C1.12,0,0,1.12,0,2.5v127c0,1.38,1.12,2.5,2.5,2.5h73c1.38,0,2.5-1.12,2.5-2.5v-19c0-1.38-1.12-2.5-2.5-2.5H24V24h84v51.5c0,1.38,1.12,2.5,2.5,2.5h19c1.38,0,2.5-1.12,2.5-2.5V2.5c0-1.38-1.12-2.5-2.5-2.5Z" fill="#0a0b24" stroke-width="0"/></g></svg>